
<svg width="40px" height="51px" viewBox="0 0 40 51" version="1.1" xmlns="http://www.w3.org/2000/svg" xmlns:xlink="http://www.w3.org/1999/xlink">
    <!-- Generator: Sketch 46.2 (44496) - http://www.bohemiancoding.com/sketch -->
    <desc>Created with Sketch.</desc>
    <defs>
        <linearGradient x1="3.07519813%" y1="-1.71398638%" x2="82.0740562%" y2="93.2860136%" id="linearGradient-1">
            <stop stop-color="#9DD3FF" offset="0%"></stop>
            <stop stop-color="#317BD0" offset="100%"></stop>
        </linearGradient>
    </defs>
    <g id="Page-1" stroke="none" stroke-width="1" fill="none" fill-rule="evenodd">
        <g id="1" transform="translate(-916.000000, -185.000000)" fill-rule="nonzero">
            <g id="Group-3" transform="translate(220.000000, 176.000000)">
                <g id="Group-14" transform="translate(696.000000, 9.000000)">
                    <g id="Group-8">
                        <g id="Group-2">
                            <path d="M35.0526316,51 L7.86315789,51 C5.14104581,51.0000373 2.93026879,48.8691893 2.91578947,46.2315 L2.91578947,8.2467 C2.93026879,5.60901071 5.14104581,3.47816268 7.86315789,3.4782 L35.0526316,3.4782 C37.7747437,3.47816268 39.9855207,5.60901071 40,8.2467 L40,46.2315 C39.9855207,48.8691893 37.7747437,51.0000373 35.0526316,51 Z M6.66842105,14.28 L35.1684211,14.28 L35.1684211,5.8701 L6.66842105,5.8701 L6.66842105,14.28 L6.66842105,14.28 Z M28.5947368,30.4266 C31.7921749,30.4266 34.3842105,27.9149174 34.3842105,24.8166 C34.3842105,21.7182826 31.7921749,19.2066 28.5947368,19.2066 C25.3972988,19.2066 22.8052632,21.7182826 22.8052632,24.8166 C22.8052632,27.9149174 25.3972988,30.4266 28.5947368,30.4266 Z M24.7263158,25.7856 L32.4684211,25.7856 L32.4684211,23.8782 L24.7368421,23.8782 L24.7368421,25.7856 L24.7263158,25.7856 Z M28.5947368,45.39 C31.7921749,45.39 34.3842105,42.8783174 34.3842105,39.78 C34.3842105,36.6816826 31.7921749,34.17 28.5947368,34.17 C25.3972988,34.17 22.8052632,36.6816826 22.8052632,39.78 C22.8052632,42.8783174 25.3972988,45.39 28.5947368,45.39 Z M24.7263158,40.749 L32.4684211,40.749 L32.4684211,38.8416 L24.7368421,38.8416 L24.7368421,40.749 L24.7263158,40.749 Z M29.2421053,38.199 C29.5228071,38.1993402 29.7543862,37.9861601 29.7684211,37.7145 L29.7684211,36.4752 C29.7543862,36.2035399 29.5228071,35.9903598 29.2421053,35.9907 L27.9473684,35.9907 C27.6666666,35.9903598 27.4350875,36.2035399 27.4210526,36.4752 L27.4210526,37.7145 C27.4350875,37.9861601 27.6666666,38.1993402 27.9473684,38.199 L29.2421053,38.199 Z M29.2421053,43.6458 C29.5228071,43.6461402 29.7543862,43.4329601 29.7684211,43.1613 L29.7684211,41.922 C29.7543862,41.6503399 29.5228071,41.4371598 29.2421053,41.4375 L27.9473684,41.4375 C27.6666666,41.4371598 27.4350875,41.6503399 27.4210526,41.922 L27.4210526,43.1613 C27.4350875,43.4329601 27.6666666,43.6461402 27.9473684,43.6458 L29.2421053,43.6458 Z M13.2421053,45.39 C16.4395433,45.39 19.0315789,42.8783174 19.0315789,39.78 C19.0315789,36.6816826 16.4395433,34.17 13.2421053,34.17 C10.0446672,34.17 7.45263158,36.6816826 7.45263158,39.78 C7.45263158,42.8783174 10.0446672,45.39 13.2421053,45.39 Z M11.2052632,43.1103 L13.2421053,41.1468 L15.2789474,43.1103 L16.6789474,41.7639 L14.6421053,39.78 L16.6789474,37.8165 L15.2631579,36.4599 L13.2263158,38.4234 L11.1894737,36.4599 L9.78947368,37.8063 L11.8263158,39.7698 L9.78947368,41.7333 L11.1894737,43.0797 L11.2052632,43.1103 Z M13.2421053,30.4776 C16.4395433,30.4776 19.0315789,27.9659174 19.0315789,24.8676 C19.0315789,21.7692826 16.4395433,19.2576 13.2421053,19.2576 C10.0446672,19.2576 7.45263158,21.7692826 7.45263158,24.8676 C7.45263158,27.9659174 10.0446672,30.4776 13.2421053,30.4776 Z M12.2789474,28.56 L14.2105263,28.56 L14.2105263,25.7907 L17.1157895,25.7907 L17.1157895,23.8833 L14.2105263,23.8833 L14.2105263,21.114 L12.2789474,21.114 L12.2789474,23.8833 L9.37368421,23.8833 L9.37368421,25.7907 L12.2789474,25.7907 L12.2789474,28.56 Z" id="Shape-Copy" fill="#D1DDF3"></path>
                            <path d="M32.2789474,47.6391 C34.670498,47.5999754 36.5813736,45.6982312 36.5578947,43.3806 L36.5578947,5.2989 C36.5813736,2.98126884 34.670498,1.07952461 32.2789474,1.0404 L5.85789474,1.0404 C3.46634409,1.07952461 1.55546855,2.98126884 1.57894737,5.2989 L1.57894737,43.3755 C1.55546855,45.6931312 3.46634409,47.5948754 5.85789474,47.634 L32.2789474,47.6391 Z M32.2789474,48.6591 L5.85789474,48.6591 C2.88743769,48.6143895 0.508634914,46.2592691 0.526315789,43.3806 L0.526315789,5.2989 C0.49700658,2.41230336 2.87916457,0.0447463747 5.85789474,-5.68e-14 L32.2736842,-5.68e-14 C35.2524144,0.0447463747 37.6345724,2.41230336 37.6052632,5.2989 L37.6052632,43.3806 C37.6345987,46.265239 35.2556116,48.6319809 32.2789474,48.6795 L32.2789474,48.6591 Z M4.7,13.4385 L4.7,3.9576 L33.4421053,3.9576 L33.4421053,13.4589 L4.7,13.4385 Z M32.3947368,12.4185 L32.3947368,5.0031 L5.74736842,5.0031 L5.74736842,12.4185 L32.3947368,12.4185 Z M26.5263158,29.6463 C23.9588381,29.7064414 21.6094438,28.2540864 20.5836076,25.9726204 C19.5577714,23.6911544 20.0597963,21.0349487 21.8534616,19.2538437 C23.6471268,17.4727387 26.3752103,16.921455 28.7540506,17.8593915 C31.1328908,18.797328 32.6887236,21.0376874 32.6894737,23.5263 C32.7275082,26.8638456 29.9705352,29.6015128 26.5263158,29.6463 Z M26.5263158,28.6263 C28.6674563,28.684416 30.6313573,27.4793644 31.4926289,25.5789652 C32.3539006,23.6785661 31.9407131,21.4619624 30.4477604,19.9736176 C28.9548077,18.4852728 26.6799443,18.0221221 24.6950856,18.802402 C22.7102269,19.582682 21.4113661,21.4507213 21.4105263,23.5263 C21.3812715,26.294856 23.669286,28.5644039 26.5263158,28.6008 L26.5263158,28.6263 Z M22.2368421,24.99 L22.2368421,22.0371 L30.8105263,22.0371 L30.8105263,24.99 L22.2368421,24.99 Z M23.2894737,23.97 L30.2842105,23.97 L29.7578947,24.48 L29.7578947,23.0877 L23.7684211,23.0877 L23.2894737,23.97 Z M26.5263158,44.6199 C23.9588381,44.6800414 21.6094438,43.2276864 20.5836076,40.9462204 C19.5577714,38.6647544 20.0597963,36.0085487 21.8534616,34.2274437 C23.6471268,32.4463387 26.3752103,31.895055 28.7540506,32.8329915 C31.1328908,33.770928 32.6887236,36.0112874 32.6894737,38.4999 C32.7158385,41.8295173 29.9622436,44.5547156 26.5263158,44.5995 L26.5263158,44.6199 Z M26.5263158,43.5999 C28.6674563,43.658016 30.6313573,42.4529644 31.4926289,40.5525652 C32.3539006,38.6521661 31.9407131,36.4355624 30.4477604,34.9472176 C28.9548077,33.4588728 26.6799443,32.9957221 24.6950856,33.776002 C22.7102269,34.556282 21.4113661,36.4243213 21.4105263,38.4999 C21.3929246,41.2605251 23.6775665,43.5176173 26.5263158,43.554 L26.5263158,43.5999 Z M22.2421053,39.9891 L22.2421053,37.0362 L30.8157895,37.0362 L30.8157895,39.9891 L22.2421053,39.9891 Z M23.2947368,38.9691 L30.2894737,38.9691 L29.7631579,39.4791 L29.7631579,38.0868 L23.7684211,38.0868 L23.2947368,38.9691 Z M27.1578947,37.4391 L25.9052632,37.4391 C25.3383472,37.4198614 24.8891261,36.9687782 24.8894737,36.4191 L24.8894737,35.1747 C24.8891261,34.6250218 25.3383472,34.1739386 25.9052632,34.1547 L27.1578947,34.1547 C27.7248106,34.1739386 28.1740318,34.6250218 28.1736842,35.1747 L28.1736842,36.4191 C28.1359667,36.9427961 27.6941902,37.3532247 27.1526316,37.3677 L27.1578947,37.4391 Z M27.1210526,35.2257 L25.9421053,35.2257 L25.9421053,36.3987 L27.1210526,36.3987 L27.1210526,35.2257 Z M27.1578947,42.8757 L25.9052632,42.8757 C25.3383472,42.8564614 24.8891261,42.4053782 24.8894737,41.8557 L24.8894737,40.6113 C24.8891261,40.0616218 25.3383472,39.6105386 25.9052632,39.5913 L27.1578947,39.5913 C27.7248106,39.6105386 28.1740318,40.0616218 28.1736842,40.6113 L28.1736842,41.82 C28.1739404,42.3715936 27.7216155,42.8234522 27.1526316,42.84 L27.1578947,42.8757 Z M27.1210526,40.6623 L25.9421053,40.6623 L25.9421053,41.8353 L27.1210526,41.8353 L27.1210526,40.6623 Z M11.6157895,44.6505 C9.04831174,44.7106414 6.69891752,43.2582864 5.67308129,40.9768204 C4.64724507,38.6953544 5.14926998,36.0391487 6.94293525,34.2580437 C8.73660052,32.4769387 11.464684,31.925655 13.8435242,32.8635915 C16.2223645,33.801528 17.7781973,36.0418874 17.7789474,38.5305 C17.7878793,41.8501753 15.036142,44.5575607 11.6105263,44.5995 L11.6157895,44.6505 Z M11.6157895,43.6305 C13.7569299,43.688616 15.720831,42.4835644 16.5821026,40.5831652 C17.4433743,38.6827661 17.0301868,36.4661624 15.5372341,34.9778176 C14.0442814,33.4894728 11.769418,33.0263221 9.78455932,33.806602 C7.7997006,34.586882 6.50083982,36.4549213 6.5,38.5305 C6.49971367,41.2772565 8.77618259,43.5149598 11.6105263,43.554 L11.6157895,43.6305 Z M9.63684211,42.6105 L7.53157895,40.5195 L9.51052632,38.5509 L7.53157895,36.5823 L9.63684211,34.4913 L11.6157895,36.4599 L13.5947368,34.4913 L15.7,36.5823 L13.6842105,38.4693 L15.6631579,40.4379 L13.5578947,42.5289 L11.5789474,40.5603 L9.63684211,42.6105 Z M11.6157895,39.168 L13.5947368,41.1366 L14.2105263,40.5246 L12.2315789,38.556 L14.2105263,36.5874 L13.5947368,35.9754 L11.6157895,37.944 L9.63684211,35.9754 L9.02105263,36.5874 L11,38.556 L9.02105263,40.5246 L9.63684211,41.1366 L11.6157895,39.168 Z M11.6157895,29.7279 C9.04831174,29.7880414 6.69891752,28.3356864 5.67308129,26.0542204 C4.64724507,23.7727544 5.14926998,21.1165487 6.94293525,19.3354437 C8.73660052,17.5543387 11.464684,17.003055 13.8435242,17.9409915 C16.2223645,18.878928 17.7781973,21.1192874 17.7789474,23.6079 C17.7705924,26.9156565 15.0238415,29.60451 11.6105263,29.6463 L11.6157895,29.7279 Z M11.6157895,28.7079 C13.7569299,28.766016 15.720831,27.5609644 16.5821026,25.6605652 C17.4433743,23.7601661 17.0301868,21.5435624 15.5372341,20.0552176 C14.0442814,18.5668728 11.769418,18.1037221 9.78455932,18.884002 C7.7997006,19.664282 6.50083982,21.5323213 6.5,23.6079 C6.51690777,26.342734 8.78843391,28.5619776 11.6105263,28.6008 L11.6157895,28.7079 Z M13.0789474,27.8766 L10.1526316,27.8766 L10.1526316,24.99 L7.33157895,24.99 L7.33157895,22.0371 L10.1526316,22.0371 L10.1526316,19.2576 L13.0789474,19.2576 L13.0789474,22.0371 L15.9,22.0371 L15.9,24.99 L13.0789474,24.99 L13.0789474,27.8766 Z M12.0263158,26.8566 L12.0263158,23.97 L14.8473684,23.97 L14.8473684,23.0979 L12.0263158,23.0979 L12.0263158,20.3184 L11.2,20.3184 L11.2,23.0979 L8.37894737,23.0979 L8.37894737,23.97 L11.2,23.97 L11.2,26.7495 L12.0263158,26.8566 Z" id="Shape" fill="url(#linearGradient-1)"></path>
                        </g>
                    </g>
                </g>
            </g>
        </g>
    </g>
</svg>
