
<svg width="42px" height="54px" viewBox="0 0 42 54" version="1.1" xmlns="http://www.w3.org/2000/svg" xmlns:xlink="http://www.w3.org/1999/xlink">
    <!-- Generator: Sketch 46.2 (44496) - http://www.bohemiancoding.com/sketch -->
    <desc>Created with Sketch.</desc>
    <defs>
        <linearGradient x1="0%" y1="0%" x2="78.9381671%" y2="90.843497%" id="linearGradient-1">
            <stop stop-color="#9DD3FF" offset="0%"></stop>
            <stop stop-color="#317BD0" offset="100%"></stop>
        </linearGradient>
    </defs>
    <g id="Page-1" stroke="none" stroke-width="1" fill="none" fill-rule="evenodd">
        <g id="3" transform="translate(-618.000000, -166.000000)" fill-rule="nonzero">
            <g id="Group-3" transform="translate(619.000000, 167.000000)">
                <path d="M19.2714286,3 C14.73779,3 10.6114786,3.8889997 7.48440286,5.44788807 C4.35704857,7.00722089 2,9.39594231 2,12.4444413 L2,19.1111057 L2,39.1111157 C2,42.1593369 4.35782857,44.5310584 7.48440286,46.0902801 C10.6107543,47.6495018 14.7390157,48.555557 19.2714286,48.555557 C20.3962443,48.555557 21.4841214,48.5066682 22.5446429,48.3993349 C24.3323471,51.1645562 27.4398671,53 30.9714286,53 C36.4936057,53 41,48.5064459 41,43.0000033 C41,39.5448378 39.2291214,36.4990611 36.5428571,34.701395 L36.5428571,19.1111057 L36.5428571,12.4444413 C36.5428571,9.39594231 34.1856971,7.00722089 31.0584543,5.44788807 C27.9312114,3.8889997 23.8050671,3 19.2714286,3 Z M19.2714286,6.33333222 C23.3534471,6.33333222 27.0421786,7.17833194 29.5611886,8.43399819 C32.07992,9.69005333 33.2,11.1973862 33.2,12.4444413 C33.2,13.6914964 32.07992,15.1988293 29.5611886,16.4548844 C27.04229,17.7105507 23.3534471,18.5555504 19.2714286,18.5555504 C15.18941,18.5555504 11.5005671,17.7105507 8.98166857,16.4548844 C6.46288143,15.1988293 5.34285714,13.6914964 5.34285714,12.4444413 C5.34285714,11.1973862 6.46282571,9.69005333 8.98166857,8.43399819 C11.5005114,7.17833194 15.18941,6.33333222 19.2714286,6.33333222 Z M5.34285714,18.1388838 C5.99560571,18.6206615 6.71448714,19.0569946 7.48440286,19.4409945 C10.61159,20.9999384 14.73779,21.8888826 19.2714286,21.8888826 C23.8050671,21.8888826 27.9312671,20.9998829 31.0584543,19.4409945 C31.8282029,19.0569946 32.5472514,18.6206615 33.2,18.1388838 L33.2,19.1111057 C33.2,20.3581609 32.07992,21.8654937 29.5611886,23.1215488 C27.04229,24.3772151 23.3534471,25.2222148 19.2714286,25.2222148 C15.18941,25.2222148 11.5005671,24.3772151 8.98166857,23.1215488 C6.46288143,21.8654937 5.34285714,20.3581609 5.34285714,19.1111057 L5.34285714,18.1388838 Z M5.34285714,24.788215 C5.99560571,25.2682704 6.71448714,25.7064924 7.48440286,26.0902701 C10.61159,27.6494529 14.73779,28.5555637 19.2714286,28.5555637 C23.8050671,28.5555637 27.9312671,27.6494529 31.0584543,26.0902701 C31.8282029,25.7064924 32.5472514,25.2682704 33.2,24.788215 L33.2,25.7777702 C33.2,27.024842 32.07992,28.5321748 29.5611886,29.78823 C27.04229,31.0438962 23.3534471,31.8888959 19.2714286,31.8888959 C15.18941,31.8888959 11.5005671,31.0438962 8.98166857,29.78823 C6.46288143,28.5321748 5.34285714,27.024842 5.34285714,25.7777702 L5.34285714,24.788215 Z M5.34285714,31.4548961 C6.00017429,31.9383959 6.72758,32.3709513 7.50178571,32.7569512 C10.6289729,34.3160618 14.73779,35.2222281 19.2714286,35.2222281 C21.49298,35.2222281 23.6046629,35.0026171 25.5566686,34.5972284 C24.0844186,35.5436169 22.8859486,36.8597832 22.0745257,38.4166715 C21.1675529,38.5077826 20.2345057,38.5555604 19.2714286,38.5555604 C15.18941,38.5555604 11.5005671,37.7105607 8.98166857,36.4548944 C6.46288143,35.1988393 5.34285714,33.6915064 5.34285714,32.4444513 L5.34285714,31.4548961 Z M33.2,31.4548961 L33.2,32.4444513 C33.2,32.6931179 33.1526429,32.9597845 33.0607143,33.2256733 C32.3870729,33.0824511 31.6868,33.0000067 30.9714286,33.0000067 C30.7958171,33.0000067 30.6225457,33.0255622 30.4491071,33.0344511 C30.6471157,32.9442289 30.85025,32.85184 31.0410714,32.7566734 C31.8152771,32.3706735 32.5426829,31.9381181 33.2,31.4546183 L33.2,31.4548961 Z M30.9714286,35.7777835 C34.9880386,35.7777835 38.2142857,38.994838 38.2142857,43.0000033 C38.2142857,47.0052242 34.9880386,50.2222231 30.9714286,50.2222231 C26.9548743,50.2222231 23.7285714,47.0052242 23.7285714,43.0000033 C23.7285714,38.994838 26.9548743,35.7777835 30.9714286,35.7777835 Z M5.34285714,38.1215605 C5.99560571,38.6016159 6.71448714,39.039838 7.48440286,39.4236156 C10.61159,40.9827818 14.73779,41.8888926 19.2714286,41.8888926 C19.8614986,41.8888926 20.4397014,41.8655593 21.0125,41.8366704 C20.9679286,42.2173925 20.9428571,42.6076701 20.9428571,42.9998922 C20.9428571,43.7323364 21.0353429,44.4468917 21.1866071,45.135336 C20.5574814,45.1814471 19.9254586,45.2221137 19.2714286,45.2221137 C15.1908029,45.2221137 11.4996757,44.377114 8.98166857,43.1214477 C6.46366143,41.8657259 5.34285714,40.3584487 5.34285714,39.1111157 L5.34285714,38.1215605 Z M34.8366071,39.3541712 C34.4258085,39.3710441 34.0434676,39.5680139 33.7919643,39.8923377 L30.1530971,44.423614 L27.3326171,42.4097258 C26.9296264,42.09287 26.3845578,42.0226273 25.9140235,42.2269122 C25.4434892,42.4311972 25.1237109,42.8769178 25.0817695,43.3869432 C25.0398282,43.8969686 25.2825179,44.38868 25.7133929,44.6666694 L29.6133929,47.4444463 C30.2149662,47.8739859 31.0483472,47.7596167 31.5111886,47.1840019 L35.9683314,41.6284482 C36.3197424,41.2057699 36.3884951,40.6163509 36.1437557,40.1245304 C35.8990163,39.6327099 35.3867155,39.3307889 34.8366071,39.3541712 L34.8366071,39.3541712 Z" id="Shape" fill="#D0DEF1"></path>
                <path d="M17.2714286,0 C12.73779,0 8.61147857,0.888999704 5.48440286,2.44788807 C2.35704857,4.00722089 0,6.39594231 0,9.4444413 L0,16.1111057 L0,36.1111157 C0,39.1593369 2.35782857,41.5310584 5.48440286,43.0902801 C8.61075429,44.6495018 12.7390157,45.555557 17.2714286,45.555557 C18.3962443,45.555557 19.4841214,45.5066682 20.5446429,45.3993349 C22.3323471,48.1645562 25.4398671,50 28.9714286,50 C34.4936057,50 39,45.5064459 39,40.0000033 C39,36.5448378 37.2291214,33.4990611 34.5428571,31.701395 L34.5428571,16.1111057 L34.5428571,9.4444413 C34.5428571,6.39594231 32.1856971,4.00722089 29.0584543,2.44788807 C25.9312114,0.888999704 21.8050671,0 17.2714286,0 Z M17.2714286,3.33333222 C21.3534471,3.33333222 25.0421786,4.17833194 27.5611886,5.43399819 C30.07992,6.69005333 31.2,8.19738616 31.2,9.4444413 C31.2,10.6914964 30.07992,12.1988293 27.5611886,13.4548844 C25.04229,14.7105507 21.3534471,15.5555504 17.2714286,15.5555504 C13.18941,15.5555504 9.50056714,14.7105507 6.98166857,13.4548844 C4.46288143,12.1988293 3.34285714,10.6914964 3.34285714,9.4444413 C3.34285714,8.19738616 4.46282571,6.69005333 6.98166857,5.43399819 C9.50051143,4.17833194 13.18941,3.33333222 17.2714286,3.33333222 Z M3.34285714,15.1388838 C3.99560571,15.6206615 4.71448714,16.0569946 5.48440286,16.4409945 C8.61159,17.9999384 12.73779,18.8888826 17.2714286,18.8888826 C21.8050671,18.8888826 25.9312671,17.9998829 29.0584543,16.4409945 C29.8282029,16.0569946 30.5472514,15.6206615 31.2,15.1388838 L31.2,16.1111057 C31.2,17.3581609 30.07992,18.8654937 27.5611886,20.1215488 C25.04229,21.3772151 21.3534471,22.2222148 17.2714286,22.2222148 C13.18941,22.2222148 9.50056714,21.3772151 6.98166857,20.1215488 C4.46288143,18.8654937 3.34285714,17.3581609 3.34285714,16.1111057 L3.34285714,15.1388838 Z M3.34285714,21.788215 C3.99560571,22.2682704 4.71448714,22.7064924 5.48440286,23.0902701 C8.61159,24.6494529 12.73779,25.5555637 17.2714286,25.5555637 C21.8050671,25.5555637 25.9312671,24.6494529 29.0584543,23.0902701 C29.8282029,22.7064924 30.5472514,22.2682704 31.2,21.788215 L31.2,22.7777702 C31.2,24.024842 30.07992,25.5321748 27.5611886,26.78823 C25.04229,28.0438962 21.3534471,28.8888959 17.2714286,28.8888959 C13.18941,28.8888959 9.50056714,28.0438962 6.98166857,26.78823 C4.46288143,25.5321748 3.34285714,24.024842 3.34285714,22.7777702 L3.34285714,21.788215 Z M3.34285714,28.4548961 C4.00017429,28.9383959 4.72758,29.3709513 5.50178571,29.7569512 C8.62897286,31.3160618 12.73779,32.2222281 17.2714286,32.2222281 C19.49298,32.2222281 21.6046629,32.0026171 23.5566686,31.5972284 C22.0844186,32.5436169 20.8859486,33.8597832 20.0745257,35.4166715 C19.1675529,35.5077826 18.2345057,35.5555604 17.2714286,35.5555604 C13.18941,35.5555604 9.50056714,34.7105607 6.98166857,33.4548944 C4.46288143,32.1988393 3.34285714,30.6915064 3.34285714,29.4444513 L3.34285714,28.4548961 Z M31.2,28.4548961 L31.2,29.4444513 C31.2,29.6931179 31.1526429,29.9597845 31.0607143,30.2256733 C30.3870729,30.0824511 29.6868,30.0000067 28.9714286,30.0000067 C28.7958171,30.0000067 28.6225457,30.0255622 28.4491071,30.0344511 C28.6471157,29.9442289 28.85025,29.85184 29.0410714,29.7566734 C29.8152771,29.3706735 30.5426829,28.9381181 31.2,28.4546183 L31.2,28.4548961 Z M28.9714286,32.7777835 C32.9880386,32.7777835 36.2142857,35.994838 36.2142857,40.0000033 C36.2142857,44.0052242 32.9880386,47.2222231 28.9714286,47.2222231 C24.9548743,47.2222231 21.7285714,44.0052242 21.7285714,40.0000033 C21.7285714,35.994838 24.9548743,32.7777835 28.9714286,32.7777835 Z M3.34285714,35.1215605 C3.99560571,35.6016159 4.71448714,36.039838 5.48440286,36.4236156 C8.61159,37.9827818 12.73779,38.8888926 17.2714286,38.8888926 C17.8614986,38.8888926 18.4397014,38.8655593 19.0125,38.8366704 C18.9679286,39.2173925 18.9428571,39.6076701 18.9428571,39.9998922 C18.9428571,40.7323364 19.0353429,41.4468917 19.1866071,42.135336 C18.5574814,42.1814471 17.9254586,42.2221137 17.2714286,42.2221137 C13.1908029,42.2221137 9.49967571,41.377114 6.98166857,40.1214477 C4.46366143,38.8657259 3.34285714,37.3584487 3.34285714,36.1111157 L3.34285714,35.1215605 Z M32.8366071,36.3541712 C32.4258085,36.3710441 32.0434676,36.5680139 31.7919643,36.8923377 L28.1530971,41.423614 L25.3326171,39.4097258 C24.9296264,39.09287 24.3845578,39.0226273 23.9140235,39.2269122 C23.4434892,39.4311972 23.1237109,39.8769178 23.0817695,40.3869432 C23.0398282,40.8969686 23.2825179,41.38868 23.7133929,41.6666694 L27.6133929,44.4444463 C28.2149662,44.8739859 29.0483472,44.7596167 29.5111886,44.1840019 L33.9683314,38.6284482 C34.3197424,38.2057699 34.3884951,37.6163509 34.1437557,37.1245304 C33.8990163,36.6327099 33.3867155,36.3307889 32.8366071,36.3541712 L32.8366071,36.3541712 Z" id="Shape-Copy-5" stroke="url(#linearGradient-1)" stroke-width="1.3"></path>
            </g>
        </g>
    </g>
</svg>
