
<svg width="45px" height="55px" viewBox="0 0 45 55" version="1.1" xmlns="http://www.w3.org/2000/svg" xmlns:xlink="http://www.w3.org/1999/xlink">
    <!-- Generator: Sketch 46.2 (44496) - http://www.bohemiancoding.com/sketch -->
    <desc>Created with Sketch.</desc>
    <defs>
        <linearGradient x1="0%" y1="0%" x2="78.9381671%" y2="90.843497%" id="linearGradient-1">
            <stop stop-color="#9DD3FF" offset="0%"></stop>
            <stop stop-color="#317BD0" offset="100%"></stop>
        </linearGradient>
    </defs>
    <g id="Page-1" stroke="none" stroke-width="1" fill="none" fill-rule="evenodd">
        <g id="1" transform="translate(-617.000000, -186.000000)">
            <g id="Group-3" transform="translate(220.000000, 176.000000)">
                <g id="Group-13" transform="translate(397.000000, 10.000000)">
                    <path d="M4,6 L37,6 L37,55 L4,55 L4,6 Z M20.9495787,35.1797753 C20.2712458,35.1797753 19.7213483,35.7296727 19.7213483,36.4080056 L19.7213483,39.5827296 C19.7213483,40.2610625 20.2712458,40.81096 20.9495787,40.81096 C21.6279115,40.81096 22.177809,40.2610625 22.177809,39.5827296 L22.177809,36.4080056 C22.177809,35.7296727 21.6279115,35.1797753 20.9495787,35.1797753 Z M27.8276685,26.4770353 C27.1493357,26.4770353 26.5994382,27.0269327 26.5994382,27.7052656 L26.5994382,39.5827296 C26.5994382,40.2610625 27.1493357,40.81096 27.8276685,40.81096 C28.5060014,40.81096 29.0558989,40.2610625 29.0558989,39.5827296 L29.0558989,27.7052656 C29.0558989,27.0269327 28.5060014,26.4770353 27.8276685,26.4770353 Z M34.9514045,30.0605165 C34.4087382,30.0605165 33.9688202,30.5004344 33.9688202,31.0431007 L33.9688202,40.3403016 C33.9688202,40.8829679 34.4087382,41.3228859 34.9514045,41.3228859 C35.4940708,41.3228859 35.9339888,40.8829679 35.9339888,40.3403016 L35.9339888,31.0431007 C35.9339888,30.5004344 35.4940708,30.0605165 34.9514045,30.0605165 Z M8.6982259,10.0954071 C8.27413262,10.0954071 7.93033708,10.4392026 7.93033708,10.8632959 C7.93033708,11.2873892 8.27413262,11.6311847 8.6982259,11.6311847 L20.918628,11.6311847 C21.3427213,11.6311847 21.6865169,11.2873892 21.6865169,10.8632959 C21.6865169,10.4392026 21.3427213,10.0954071 20.918628,10.0954071 L20.918628,10.0954071 L8.6982259,10.0954071 Z M8.6982259,13.6788882 L8.6982259,13.6788882 C8.27413262,13.6788882 7.93033708,14.0226838 7.93033708,14.4467771 C7.93033708,14.8708703 8.27413262,15.2146659 8.6982259,15.2146659 L20.4273359,15.2146659 C20.8514292,15.2146659 21.1952247,14.8708703 21.1952247,14.4467771 C21.1952247,14.0226838 20.8514292,13.6788882 20.4273359,13.6788882 L8.6982259,13.6788882 Z" id="Combined-Shape" fill="#D0DEF1"></path>
                    <path d="M0.899743786,0.000101207535 C0.402849594,0.000153463593 4.96819672e-05,0.423822997 0,0.946461963 L7.99133014e-16,52.0536392 C4.96819672e-05,52.5762782 0.402849594,52.9999477 0.899743786,53 L8.43509799,53 L17.9913613,53 L35.0900076,53 C35.5869018,52.9999477 35.9897017,52.5762782 35.9897514,52.0536392 L35.9897514,46.3717782 C35.9943404,46.0304865 35.8238609,45.7130341 35.5435929,45.5409797 C35.2633249,45.3689253 34.9166904,45.3689253 34.6364224,45.5409797 C34.3561544,45.7130341 34.1856749,46.0304865 34.1902639,46.3717782 L34.1902639,51.1072785 L17.9913613,51.1072785 L8.43509799,51.1072785 L1.79948757,51.1072785 L1.79948757,1.89282272 L26.9923136,1.89282272 L26.9923136,8.52104468 C26.9923633,9.04368365 27.3951632,9.46735318 27.8920574,9.46740544 L34.1902639,9.46740544 L34.1902639,14.1844223 L34.1902639,21.7663986 C34.1856749,22.1076903 34.3561544,22.4251427 34.6364224,22.5971971 C34.9166904,22.7692515 35.2633249,22.7692515 35.5435929,22.5971971 C35.8238609,22.4251427 35.9943404,22.1076903 35.9897514,21.7663986 L35.9897514,14.1844223 L35.9897514,8.58019223 C35.9934805,8.27974374 35.8983766,8.03299909 35.7261553,7.8519381 L28.528205,0.281052057 C28.3560631,0.0999074712 28.1214729,-0.000124167662 27.8779998,0.00379788192 C27.8392273,0.00363154305 27.8004852,0.00610120343 27.7620156,0.01119142 C27.7120255,0.00303296845 27.6614703,-0.000676913601 27.6108874,0.000101207535 L0.899743786,0.000101207535 Z M28.7918011,3.23473274 L32.9179704,7.57468393 L28.7918011,7.57468393 L28.7918011,3.23473274 Z M6.20682636,5.67826574 C5.70994932,5.70485755 5.32763064,6.15005542 5.35286278,6.67267902 C5.37809492,7.19530261 5.8013244,7.59747435 6.2982065,7.57098725 L8.09769407,7.57098725 C8.422174,7.57581397 8.72398895,7.39650171 8.88756809,7.10171265 C9.05114723,6.80692359 9.05114723,6.44232941 8.88756809,6.14754035 C8.72398895,5.85275129 8.422174,5.67343903 8.09769407,5.67826574 L6.2982065,5.67826574 C6.26776611,5.67663791 6.23726675,5.67663791 6.20682636,5.67826574 Z M11.6334064,5.67826574 C11.1364917,5.70480697 10.7541187,6.15002303 10.7793525,6.67268364 C10.8045864,7.19534425 11.2278714,7.59752848 11.7247862,7.57098725 L18.8805619,7.57098725 C19.2050418,7.57581397 19.5068568,7.39650171 19.6704359,7.10171265 C19.8340151,6.80692359 19.8340151,6.44232941 19.6704359,6.14754035 C19.5068568,5.85275129 19.2050418,5.67343903 18.8805619,5.67826574 L11.7247862,5.67826574 C11.6943459,5.67663793 11.6638467,5.67663793 11.6334064,5.67826574 Z M6.20682636,9.46370876 C5.70994932,9.49030057 5.32763064,9.93549845 5.35286278,10.458122 C5.37809492,10.9807456 5.8013244,11.3829174 6.2982065,11.3564303 L8.09769407,11.3564303 C8.422174,11.361257 8.72398895,11.1819447 8.88756809,10.8871557 C9.05114723,10.5923666 9.05114723,10.2277724 8.88756809,9.93298337 C8.72398895,9.63819431 8.422174,9.45888205 8.09769407,9.46370876 L6.2982065,9.46370876 C6.26776611,9.46208094 6.23726675,9.46208094 6.20682636,9.46370876 Z M11.6334064,9.46370876 C11.1364917,9.49024999 10.7541187,9.93546605 10.7793525,10.4581267 C10.8045864,10.9807873 11.2278714,11.3829715 11.7247862,11.3564303 L18.8805619,11.3564303 C19.2050418,11.361257 19.5068568,11.1819447 19.6704359,10.8871557 C19.8340151,10.5923666 19.8340151,10.2277724 19.6704359,9.93298337 C19.5068568,9.63819431 19.2050418,9.45888205 18.8805619,9.46370876 L11.7247862,9.46370876 C11.6943459,9.46208095 11.6638467,9.46208095 11.6334064,9.46370876 Z M13.4820992,13.2380616 C12.9865702,13.2462212 12.5905947,13.6742816 12.596413,14.1955125 L12.596413,38.8008922 C12.5964627,39.3235312 12.9992626,39.7472007 13.4961568,39.7472529 L44.0874455,39.7472529 C44.4119245,39.7520782 44.713738,39.5727656 44.8773163,39.2779771 C45.0408946,38.9831887 45.0408946,38.6185957 44.8773163,38.3238072 C44.713738,38.0290188 44.4119245,37.8497062 44.0874455,37.8545314 L43.1877017,37.8545314 L43.1877017,16.0882341 C43.187652,15.5655951 42.7848521,15.1419256 42.2879579,15.1418733 L38.6889828,15.1418733 C38.1920886,15.1419256 37.7892887,15.5655951 37.789239,16.0882341 L37.789239,37.8545314 L35.9897514,37.8545314 L35.9897514,25.5518416 C35.9897018,25.0292026 35.5869018,24.6055331 35.0900076,24.6054809 L31.4910325,24.6054809 C30.9941383,24.6055331 30.5913384,25.0292026 30.5912887,25.5518416 L30.5912887,37.8545314 L28.7918011,37.8545314 L28.7918011,21.7663986 C28.7917515,21.2437596 28.3889515,20.8200901 27.8920574,20.8200378 L24.2930822,20.8200378 C23.796188,20.8200901 23.3933881,21.2437596 23.3933384,21.7663986 L23.3933384,37.8545314 L21.5938509,37.8545314 L21.5938509,31.2041289 C21.5938012,30.6814899 21.1910013,30.2578204 20.6941071,30.2577681 L17.0951319,30.2577681 C16.5982377,30.2578204 16.1954378,30.6814899 16.1953881,31.2041289 L16.1953881,37.8545314 L14.3959006,37.8545314 L14.3959006,14.1955125 C14.3987522,13.9400296 14.3032778,13.6941868 14.1311806,13.513869 C13.9590833,13.3335511 13.7249845,13.234078 13.4820992,13.2380616 Z M39.5887266,17.0345948 L41.3882141,17.0345948 L41.3882141,37.8286541 L39.5887266,37.8286541 L39.5887266,17.0345948 Z M25.192826,22.7127593 L26.9923136,22.7127593 L26.9923136,37.8286541 L25.192826,37.8286541 L25.192826,22.7127593 Z M32.3907763,26.4982024 L34.1902639,26.4982024 L34.1902639,37.8286541 L32.3907763,37.8286541 L32.3907763,26.4982024 Z M17.9948757,32.1504896 L19.7943633,32.1504896 L19.7943633,37.8286541 L17.9948757,37.8286541 L17.9948757,32.1504896 Z M18.8032397,41.6399744 C18.3063249,41.6665157 17.923952,42.1117317 17.9491858,42.6343924 C17.9744197,43.157053 18.3977047,43.5592372 18.8946195,43.532696 L38.681954,43.532696 C39.0064339,43.5375227 39.3082489,43.3582104 39.471828,43.0634214 C39.6354071,42.7686323 39.6354071,42.4040381 39.471828,42.1092491 C39.3082489,41.81446 39.0064339,41.6351477 38.681954,41.6399744 L18.8946195,41.6399744 C18.8641792,41.6383466 18.83368,41.6383466 18.8032397,41.6399744 Z" id="Shape" fill="url(#linearGradient-1)" fill-rule="nonzero"></path>
                </g>
            </g>
        </g>
    </g>
</svg>
