
<svg width="46px" height="57px" viewBox="0 0 46 57" version="1.1" xmlns="http://www.w3.org/2000/svg" xmlns:xlink="http://www.w3.org/1999/xlink">
    <!-- Generator: Sketch 46.2 (44496) - http://www.bohemiancoding.com/sketch -->
    <desc>Created with Sketch.</desc>
    <defs>
        <linearGradient x1="0%" y1="-3.85741654%" x2="78.9381671%" y2="90.843497%" id="linearGradient-1">
            <stop stop-color="#9DD3FF" offset="0%"></stop>
            <stop stop-color="#317BD0" offset="100%"></stop>
        </linearGradient>
    </defs>
    <g id="Page-1" stroke="none" stroke-width="1" fill="none" fill-rule="evenodd">
        <g id="1" transform="translate(-314.000000, -185.000000)" fill-rule="nonzero">
            <g id="Group-3" transform="translate(220.000000, 176.000000)">
                <g id="Group-6" transform="translate(85.000000, 0.000000)">
                    <path d="M34.0122117,7 C34.0122117,7 24.1796239,16.822058 22.4928216,23.1800107 L22.4710974,23.1800107 C22.4710974,23.2477183 22.4495519,23.320893 22.4495519,23.3939835 C22.3719526,23.9838386 22.3158093,24.5781514 22.2436633,25.1679223 C21.3614625,34.6368916 22.9042412,44.2437992 26.394066,54 L41.6303574,54 C45.0923788,44.311675 46.6187078,34.7473264 45.7699426,25.3515319 C45.7199679,24.6414012 45.6422792,23.9407749 45.5423298,23.2308966 L45.5423298,23.1797584 C43.8611597,16.822058 34.0122117,7 34.0122117,7 Z M34.5055524,22 C37.5448249,22 40,24.2500062 40,27.0100436 C40,29.7700809 37.5446429,32 34.5055524,32 C31.46628,32 29,29.7700809 29,27.0100436 C29,24.2500062 31.46628,22 34.5055524,22 Z M47.3962511,40 C46.9203412,43.6157697 46.1000037,47.2808756 45,51.0115666 C45.4336447,51.5758176 45.7483332,52.2052328 45.9915287,52.8689139 L48.3259157,59.5737516 C48.5426954,60.1902013 49.4283054,60.1193121 49.5447052,59.4818988 L50.6912348,53.4505925 C51.6326587,48.674749 50.3894985,43.7830581 47.3962511,40 L47.3962511,40 Z M21.6083611,40 C18.6082427,43.7920728 17.383682,48.6631523 18.2954617,53.4438861 L19.4446886,59.4813682 C19.5613622,60.1194343 20.46964,60.1903961 20.6871006,59.5733152 L23.0371435,52.8616118 C23.254604,52.1973354 23.5919839,51.5724167 24,51.0023627 C22.9186762,47.2887524 22.1121248,43.5985713 21.6083611,40 L21.6083611,40 Z M29.9426564,56 C28.9491954,56.6495111 27.593225,58.0293361 28.1160697,60.6164865 C28.8827401,64.5559273 34.4922287,69.6727569 34.4922287,73 C34.4922287,69.6727569 40.101062,64.5559273 40.8910386,60.6164865 C41.3963802,58.0293361 40.0351683,56.6495111 39.0417073,56 L37.1925631,56 C37.2970197,56.2927603 37.3363314,56.6451364 37.2491906,57.0710242 C36.9181305,58.7638531 34.4922287,60.9673186 34.4922287,62.4153371 C34.4922287,60.9726368 32.0608044,58.7638531 31.723754,57.0710242 C31.6368004,56.6451364 31.6761121,56.2927603 31.7806623,56 L29.9426564,56 L29.9426564,56 Z" id="Shape" fill="#D0DEEF" transform="translate(34.500000, 40.000000) rotate(38.000000) translate(-34.500000, -40.000000) "></path>
                    <g id="Group-5" fill="url(#linearGradient-1)">
                        <path d="M24.1663994,14.349322 C24.9762908,13.02721 25.9321097,11.6401441 27.0040343,10.2105581 C28.227004,8.57952885 29.5361314,6.97779103 30.8452137,5.47223618 C31.3034232,4.9452566 31.7290526,4.46776793 32.1112958,4.04820518 C32.3413387,3.79570247 32.5063114,3.61808408 32.595398,3.52380429 L33.0183144,3.076234 L33.4415967,3.52344736 C33.5307514,3.61764263 33.6958475,3.79510245 33.9260611,4.04738431 C34.3085862,4.46657825 34.7345291,4.94365939 35.1930759,5.47020453 C36.5031217,6.97451816 37.8132128,8.57504856 39.0370845,10.2049994 C40.1118106,11.6363184 41.0698915,13.0250734 41.8813292,14.3487501 C43.1724945,16.4549937 44.0584617,18.339169 44.4623641,19.9573866 L44.4803538,20.1038163 C44.5774058,20.8510121 44.6480993,21.5473059 44.6928467,22.2225189 C45.4814848,31.47154 44.1368761,41.0789654 40.7589789,51.0936531 L40.6231327,51.4964059 L25.4143377,51.4964059 L25.2784126,51.093829 C21.8648392,40.9836608 20.5164591,31.3386817 21.3360882,22.0210554 C21.3599996,21.813971 21.3780579,21.6451746 21.4170499,21.2707197 C21.4702975,20.76076 21.4968758,20.5194966 21.5271048,20.2739816 C21.5288801,20.22665 21.5335985,20.1864161 21.5424252,20.1241016 C21.5448328,20.1071044 21.5462267,19.9018025 21.5466069,19.508196 L21.7079094,19.508196 C22.155222,17.9939951 22.9939024,16.2633714 24.1663994,14.349322 Z M31.7246775,6.26111834 C30.4331791,7.74645031 29.1417257,9.32656373 27.9374868,10.9326125 C26.8865491,12.3342089 25.9514263,13.6912412 25.1626418,14.9788968 C23.9306858,16.9900106 23.0927087,18.7719302 22.7223267,20.2509534 L22.6950076,20.3924418 C22.6643793,20.6390923 22.6379415,20.8782698 22.5981854,21.2587881 C22.5910298,21.3273553 22.5910298,21.3273553 22.5838753,21.3960642 C22.5444173,21.7749951 22.5260353,21.946816 22.5031018,22.1434757 C21.7113988,31.1461082 22.9904201,40.4927034 26.2533938,50.304661 L39.7837863,50.304661 C43.0117553,40.586 44.2871494,31.2767234 43.5230319,22.3140435 C43.4784537,21.6429503 43.4086909,20.9599669 43.3122933,20.2346264 C42.9323264,18.7214373 42.1007922,16.961473 40.8852882,14.9786538 C40.0950503,13.6895597 39.1577564,12.3309357 38.1041116,10.9276929 C36.8990131,9.32274426 35.6066361,7.7438549 34.3142137,6.25977815 C33.8618967,5.74038665 33.4420375,5.27011958 33.0655094,4.85749744 C32.5962305,5.27060855 32.1766712,5.74128754 31.7246775,6.26111834 Z M33.0084633,19.8439465 C30.5169127,19.8439465 28.4949869,21.8649335 28.4949869,24.3418496 C28.4949869,26.8141173 30.512294,28.8193298 33.0084633,28.8193298 C35.5022008,28.8193298 37.5116525,26.8163911 37.5116525,24.3418496 C37.5116525,21.8625898 35.497698,19.8439465 33.0084633,19.8439465 Z M33.0084633,18.6522017 C36.142259,18.6522017 38.6849858,21.2008483 38.6849858,24.3418496 C38.6849858,27.479645 36.1453247,30.0110747 33.0084633,30.0110747 C29.8698803,30.0110747 27.3216536,27.4781256 27.3216536,24.3418496 C27.3216536,21.2024358 29.8730725,18.6522017 33.0084633,18.6522017 Z M44.252366,36.4476844 L44.4335352,35.0591096 L45.292813,36.1546862 C48.3851952,40.0974646 49.6281084,45.1653262 48.6706725,50.0651115 L47.5369237,56.0816363 C47.3127032,57.3202993 45.6150829,57.4527398 45.2002512,56.262696 L42.8935171,49.5786834 C42.6542388,48.9199402 42.3637817,48.3621002 41.9987781,47.8829802 L41.8147968,47.6414782 L41.9003555,47.3487477 C43.0133948,43.5405945 43.798367,39.927368 44.252366,36.4476844 Z M43.1077549,47.4036476 C43.4659628,47.9243167 43.755466,48.5086343 43.997557,49.1753172 L46.306915,55.8667028 C46.320904,55.9068333 46.3763491,55.9025077 46.3837204,55.8618732 L47.5190216,49.8371001 C48.3180163,45.7480958 47.4698537,41.5346943 45.2077739,38.0606988 C44.7429825,41.0656818 44.0421942,44.1676734 43.1077549,47.4036476 Z M20.703119,36.1754302 L21.5529114,35.0904147 L21.7431752,36.4633319 C22.2335267,40.00164 23.0201965,43.6522882 24.0863335,47.3508971 L24.1668405,47.6301892 L23.9994746,47.8663949 C23.6113571,48.4141505 23.3165647,48.9830816 23.1261269,49.5703136 L20.8057298,56.2645936 C20.3914104,57.4522253 18.6735334,57.3207805 18.4500131,56.085899 L17.3155166,50.065322 C16.3868636,45.1467061 17.6224344,40.1088503 20.703119,36.1754302 Z M18.4678928,49.8410857 L19.6032164,55.8661358 C19.609669,55.9017816 19.6854635,55.9075811 19.6993779,55.8676995 L22.0154991,49.1861296 C22.2131957,48.5760979 22.50642,47.9817204 22.8818443,47.4120227 C21.9819575,44.251812 21.2832675,41.1252711 20.7961841,38.070922 C18.5391391,41.5361031 17.6921784,45.7325098 18.4678928,49.8410857 Z M33.5177729,56.0580435 C33.6056373,55.918992 33.6661806,55.8227032 33.7260649,55.7264982 C34.2910671,54.8188147 34.5732994,54.2472645 34.6603147,53.7634558 C34.7148408,53.4736221 34.6997461,53.2300511 34.6289599,53.0142786 L34.3716825,52.2300389 L37.03633,52.2300389 L37.1878389,52.3377709 C38.6899626,53.4058721 39.519352,55.0906208 39.0940358,57.4587909 C38.8310922,58.8849035 38.1027389,60.3677415 36.7027094,62.6251379 C36.5489168,62.8731119 36.3938574,63.120178 36.1704628,63.4740519 C33.986008,66.9343929 33.3395536,68.20071 33.3395536,69.4823756 L32.1662203,69.4823756 C32.1662203,68.2038308 31.5238273,66.9431634 29.3477566,63.489143 C29.1205784,63.128549 28.9630903,62.8770472 28.8068994,62.6245126 C27.412493,60.3699896 26.6870814,58.8835628 26.4322966,57.4596163 C25.9925243,55.092891 26.8158263,53.4058015 28.3178507,52.3377709 L28.4693596,52.2300389 L31.1242035,52.2300389 L30.8666457,53.0144305 C30.7958372,53.2300776 30.7806947,53.4737068 30.8356273,53.7663628 C30.9232373,54.2449302 31.206608,54.81655 31.771977,55.72259 C31.8323475,55.8193376 31.8934637,55.916292 31.9818418,56.0557952 C32.3047414,56.5654863 32.556971,56.97412 32.7516022,57.3186203 C32.9453809,56.9744779 33.1964551,56.5665513 33.5177729,56.0580435 Z M27.585997,57.242556 C27.806318,58.4738241 28.4831551,59.860718 29.8004534,61.99057 C29.9545395,62.2397015 30.1105035,62.4887695 30.3360679,62.846802 C31.5383724,64.7551885 32.2982664,66.0272533 32.7528783,67.0328226 C33.2092895,66.0234169 33.9732047,64.7467726 35.1827312,62.8307914 C35.4045726,62.479378 35.5581637,62.2346513 35.70993,61.9899446 C37.0334455,59.8559187 37.7136606,58.4710843 37.9402503,57.2421779 C38.2616316,55.452692 37.7161739,54.2398333 36.6601116,53.4217837 L35.8666343,53.4217837 C35.8672571,53.6030787 35.849859,53.7900617 35.8136763,53.9823488 C35.6917378,54.6604872 35.3614854,55.3292831 34.717812,56.3633529 C34.6562023,56.4623298 34.594414,56.5605987 34.5052306,56.7017375 C33.6138198,58.112457 33.3395536,58.6508695 33.3395536,59.1116074 L32.1662203,59.1116074 C32.1662203,58.6530858 31.8909475,58.1146997 30.9951302,56.7006685 C30.9054188,56.5590606 30.8430412,56.4601052 30.780928,56.3605648 C30.1372061,55.3289593 29.8058946,54.6606326 29.6825619,53.9868969 C29.6460521,53.7924112 29.6285031,53.6040105 29.6290992,53.4217837 L28.8456249,53.4217837 C27.7922318,54.2383037 27.2529146,55.4499339 27.585997,57.242556 Z" id="Shape" transform="translate(33.000134, 36.279305) rotate(37.000000) translate(-33.000134, -36.279305) "></path>
                    </g>
                </g>
            </g>
        </g>
    </g>
</svg>
