
<svg width="53px" height="51px" viewBox="0 0 53 51" version="1.1" xmlns="http://www.w3.org/2000/svg" xmlns:xlink="http://www.w3.org/1999/xlink">
    <!-- Generator: Sketch 46.2 (44496) - http://www.bohemiancoding.com/sketch -->
    <desc>Created with Sketch.</desc>
    <defs>
        <linearGradient x1="0%" y1="0%" x2="78.9381671%" y2="90.843497%" id="linearGradient-1">
            <stop stop-color="#9DD3FF" offset="0%"></stop>
            <stop stop-color="#317BD0" offset="100%"></stop>
        </linearGradient>
    </defs>
    <g id="Page-1" stroke="none" stroke-width="1" fill="none" fill-rule="evenodd">
        <g id="2" transform="translate(-611.000000, -174.000000)" fill-rule="nonzero">
            <g id="Group-3" transform="translate(613.000000, 176.000000)">
                <path d="M50.2380814,26.3562736 L26.6841939,2.80238603 C25.397637,1.51582915 23.6162506,0.872550711 21.7853812,1.02099958 L7.63325544,2.20859055 C6.34669856,2.30755646 5.30755646,3.34669856 5.20859055,4.63325544 L4.02099958,18.7853812 C3.87255071,20.6162506 4.51582915,22.397637 5.80238603,23.6841939 L29.3562736,47.2380814 C30.3954157,48.2772235 32.0778362,48.2772235 33.1169783,47.2380814 L50.2380814,30.1169783 C51.2772235,29.0283533 51.2772235,27.3954157 50.2380814,26.3562736 Z M16.5401877,18.1421027 C13.9670739,18.1421027 11.8887897,16.0638185 11.8887897,13.4907048 C11.8887897,10.917591 13.9670739,8.83930679 16.5401877,8.83930679 C19.1133015,8.83930679 21.1915857,10.917591 21.1915857,13.4907048 C21.1915857,16.0638185 19.1133015,18.1421027 16.5401877,18.1421027 Z" id="Shape" fill="#D0DEF1"></path>
                <path d="M46.2380814,25.3562736 L22.6841939,1.80238603 C21.397637,0.515829152 19.6162506,-0.127449289 17.7853812,0.0209995821 L3.63325544,1.20859055 C2.34669856,1.30755646 1.30755646,2.34669856 1.20859055,3.63325544 L0.0209995821,17.7853812 C-0.127449289,19.6162506 0.515829152,21.397637 1.80238603,22.6841939 L25.3562736,46.2380814 C26.3954157,47.2772235 28.0778362,47.2772235 29.1169783,46.2380814 L46.2380814,29.1169783 C47.2772235,28.0283533 47.2772235,26.3954157 46.2380814,25.3562736 Z M12.5401877,17.1421027 C9.96707394,17.1421027 7.88878975,15.0638185 7.88878975,12.4907048 C7.88878975,9.91759099 9.96707394,7.83930679 12.5401877,7.83930679 C15.1133015,7.83930679 17.1915857,9.91759099 17.1915857,12.4907048 C17.1915857,15.0638185 15.1133015,17.1421027 12.5401877,17.1421027 Z" id="Shape-Copy" stroke="url(#linearGradient-1)" stroke-width="2.2"></path>
            </g>
        </g>
    </g>
</svg>
